<?xml version="1.0" encoding="UTF-8" standalone="no"?>
<!-- Created with Inkscape (http://www.inkscape.org/) -->

<svg
   xmlns:dc="http://purl.org/dc/elements/1.1/"
   xmlns:cc="http://creativecommons.org/ns#"
   xmlns:rdf="http://www.w3.org/1999/02/22-rdf-syntax-ns#"
   xmlns:svg="http://www.w3.org/2000/svg"
   xmlns="http://www.w3.org/2000/svg"
   xmlns:sodipodi="http://sodipodi.sourceforge.net/DTD/sodipodi-0.dtd"
   xmlns:inkscape="http://www.inkscape.org/namespaces/inkscape"
   width="19.00712"
   height="94.498695"
   id="svg2"
   version="1.1"
   inkscape:version="0.48+devel r9772"
   sodipodi:docname="twoColumns-icons.svg"
   inkscape:export-filename="/Users/jiho/Desktop/twoColumns_icons.png"
   inkscape:export-xdpi="90.000015"
   inkscape:export-ydpi="90.000015">
  <defs
     id="defs4">
    <clipPath
       clipPathUnits="userSpaceOnUse"
       id="clipPath10515">
      <rect
         style="opacity:0.3;color:#000000;fill:#a51d1e;stroke:none;stroke-width:2;marker:none;visibility:visible;display:inline;overflow:visible;enable-background:accumulate"
         id="rect10517"
         width="13.000002"
         height="12.999984"
         x="30"
         y="245.36218" />
    </clipPath>
    <clipPath
       clipPathUnits="userSpaceOnUse"
       id="clipPath10743">
      <rect
         y="224.86087"
         x="74"
         height="30"
         width="26"
         id="rect10745"
         style="color:#000000;fill:#ffffff;fill-opacity:1;fill-rule:nonzero;stroke:none;stroke-width:2;marker:none;visibility:visible;display:inline;overflow:visible;enable-background:accumulate" />
    </clipPath>
  </defs>
  <sodipodi:namedview
     id="base"
     pagecolor="#ffffff"
     bordercolor="#666666"
     borderopacity="1.0"
     inkscape:pageopacity="0.0"
     inkscape:pageshadow="2"
     inkscape:zoom="7.6932281"
     inkscape:cx="9.5071201"
     inkscape:cy="47.249346"
     inkscape:document-units="px"
     inkscape:current-layer="layer1"
     showgrid="true"
     inkscape:window-width="1356"
     inkscape:window-height="946"
     inkscape:window-x="49"
     inkscape:window-y="0"
     inkscape:window-maximized="0"
     fit-margin-top="0"
     fit-margin-left="0"
     fit-margin-right="0"
     fit-margin-bottom="0"
     showborder="false"
     inkscape:showpageshadow="false">
    <inkscape:grid
       type="xygrid"
       id="grid10289"
       empspacing="2"
       visible="true"
       enabled="true"
       snapvisiblegridlinesonly="true"
       spacingx="0.5px"
       spacingy="0.5px" />
  </sodipodi:namedview>
  <metadata
     id="metadata7">
    <rdf:RDF>
      <cc:Work
         rdf:about="">
        <dc:format>image/svg+xml</dc:format>
        <dc:type
           rdf:resource="http://purl.org/dc/dcmitype/StillImage" />
        <dc:title></dc:title>
      </cc:Work>
    </rdf:RDF>
  </metadata>
  <g
     inkscape:label="Layer 1"
     inkscape:groupmode="layer"
     id="layer1"
     transform="translate(-25.992879,-187.36218)">
    <g
       id="g11092"
       inkscape:export-filename="twoColumns-Tag.png"
       inkscape:export-xdpi="90.000015"
       inkscape:export-ydpi="90.000015">
      <rect
         y="187.36218"
         x="26"
         height="10"
         width="16"
         id="rect10291"
         style="color:#000000;fill:none;stroke:none;stroke-width:1.99999988;marker:none;visibility:visible;display:inline;overflow:visible;enable-background:accumulate" />
      <path
         id="path11252"
         d="m 31.09375,188.86087 c -0.25418,0 -0.523984,0.0865 -0.71875,0.28125 l -2.78125,3.00743 c -0.389532,0.38953 -0.389532,1.01672 0,1.40625 l 2.78125,3.02382 c 0.193906,0.1939 0.461322,0.28386 0.71875,0.28125 2.804656,-0.005 5.601588,0 8.40625,0 0.530686,0 1,-0.46931 1,-1 l 0,-6 c 0,-0.53069 -0.469314,-1 -1,-1 -2.802083,5e-5 -5.604167,-1.2e-4 -8.40625,0 z"
         style="color:#000000;fill:#666666;fill-opacity:1;fill-rule:nonzero;stroke:none;stroke-width:0.1;marker:none;visibility:visible;display:inline;overflow:visible;enable-background:accumulate"
         inkscape:connector-curvature="0"
         sodipodi:nodetypes="ccccccssscc" />
      <path
         sodipodi:type="arc"
         style="color:#000000;fill:#ffffff;stroke:none;stroke-width:0.06847441;marker:none;visibility:visible;display:inline;overflow:visible;enable-background:accumulate"
         id="path11118"
         sodipodi:cx="2.3566592"
         sodipodi:cy="4.7133183"
         sodipodi:rx="1.0518167"
         sodipodi:ry="1.0518167"
         d="m 3.4084759,4.7133183 c 0,0.5809024 -0.4709144,1.0518167 -1.0518167,1.0518167 -0.5809024,0 -1.0518167,-0.4709143 -1.0518167,-1.0518167 0,-0.5809023 0.4709143,-1.0518167 1.0518167,-1.0518167 0.5809023,0 1.0518167,0.4709144 1.0518167,1.0518167 z"
         transform="matrix(1.2324074,0,0,1.2324074,27.009595,187.05215)" />
    </g>
    <g
       id="g11088"
       inkscape:export-filename="twoColumns-Tree.png"
       inkscape:export-xdpi="90.000015"
       inkscape:export-ydpi="90.000015">
      <rect
         style="color:#000000;fill:none;stroke:none;stroke-width:1.99999988;marker:none;visibility:visible;display:inline;overflow:visible;enable-background:accumulate"
         id="rect11067"
         width="16"
         height="11.000003"
         x="26"
         y="199.36218" />
      <path
         id="path11075"
         style="color:#000000;fill:none;stroke:#666666;stroke-width:1px;stroke-linecap:round;stroke-linejoin:miter;stroke-miterlimit:4;stroke-opacity:1;stroke-dasharray:none;stroke-dashoffset:0;marker:none;visibility:visible;display:inline;overflow:visible;enable-background:accumulate"
         d="m 34.5,204.86218 6,0 m -9,2 0,2 9,0 m -14,-2 5,0 0,-2 3,0 0,-4 6,0"
         inkscape:connector-curvature="0"
         sodipodi:nodetypes="ccccccccccc" />
    </g>
    <g
       id="g11082"
       inkscape:export-filename="twoColumns-World.png"
       inkscape:export-xdpi="90.000015"
       inkscape:export-ydpi="90.000015">
      <rect
         y="213.36218"
         x="26"
         height="10"
         width="16"
         id="rect11069"
         style="color:#000000;fill:none;stroke:none;stroke-width:1.99999988;marker:none;visibility:visible;display:inline;overflow:visible;enable-background:accumulate" />
      <g
         transform="matrix(1.0931406,0,0,1.0931406,1.08567,-20.338382)"
         id="g11183">
        <path
           style="color:#000000;fill:#666666;fill-opacity:1;fill-rule:nonzero;stroke:none;stroke-width:0.09147954;marker:none;visibility:visible;display:inline;overflow:visible;enable-background:accumulate"
           d="m 31.698342,222.47875 c -2.267473,-0.0967 -4.155668,-2.40268 -3.797825,-4.64493 0.2275,-2.25268 2.616405,-4.02193 4.837569,-3.54814 2.170458,0.35405 3.811849,2.68991 3.326836,4.85177 -0.363052,1.97527 -2.337831,3.57738 -4.36658,3.3413 z m 0.700711,-0.0396 c 0.815349,-0.0749 1.610373,-0.39627 2.23497,-0.92811 -0.547843,-0.15138 -1.027936,0.32139 -1.574033,0.24527 -0.4495,0.22626 -0.947699,0.32998 -1.403675,0.54079 0.09311,0.33194 0.509245,0.21508 0.742738,0.14205 z m -1.99676,-1.16183 c 0.245554,-0.0686 -0.163617,-0.0487 0,0 z m -0.113619,-0.0592 c 0.200785,-0.16303 -0.213857,0.0373 0,0 z m 0.0577,-0.0571 c 0.221938,-0.5164 0.847173,-0.64744 1.153018,-1.09324 0.509625,-0.17765 0.475222,-1.05127 -0.05347,-1.17823 -0.443581,-0.20817 -0.84821,-0.65658 -1.383514,-0.52847 -0.476425,0.25277 -0.459083,1.03069 -0.006,1.29823 0.352744,0.43618 -0.03116,1.05366 0.289966,1.50171 z M 30.20133,220.6918 c -0.235085,-0.11008 0.111718,-0.0146 0,0 z m 0.032,-0.0835 c 0.120354,0.0631 -0.112379,0.0902 0,0 z m 3.888657,-0.10091 c 0.547192,-0.28997 0.790892,-0.90967 0.927868,-1.4798 0.368678,-0.41731 0.456773,-1.00792 0.837573,-1.41681 0.215739,-0.68077 -0.29764,-1.36653 -0.87626,-1.67507 -0.336135,-0.17986 -0.680818,-0.47154 -1.08513,-0.4019 -0.09124,0.37902 -0.582611,0.65117 -0.619379,1.07057 0.254427,0.51199 1.023304,-0.29896 1.274954,0.27426 0.06838,0.65144 -0.790207,0.3969 -1.07177,0.13646 -0.644583,-0.15503 -1.231995,0.64672 -0.877665,1.20976 0.222861,0.50492 0.929127,0.31315 1.148266,0.80907 0.16827,0.31005 0.124818,0.67336 0.104417,1.00796 0.02208,0.17532 0.09127,0.35641 0.237126,0.4655 z m 0.415326,-0.45136 c -0.129966,-0.002 0.0214,-0.0961 0,0 z m -1.635389,-1.49826 c 0.109367,0.0127 -0.08862,0.0603 0,0 z m 0.04947,-0.0495 c 0.109367,0.0126 -0.08862,0.0603 0,0 z m 2.216625,-0.23531 c -0.291906,-0.074 0.200385,-0.22285 0,0 z m -0.01449,-0.12179 c 0.232295,-0.48451 -0.36567,0.0793 0,0 z m 0.608602,-1.02008 c -0.260992,-0.13059 0.14945,-0.12981 0,0 z m 0.07453,-0.0333 c 0.08981,-0.12968 -0.01478,-0.10479 -0.01989,0.003 z m -0.630641,-0.95291 c -0.01322,0.20618 -0.11227,-0.1523 0,0 z m 0.02885,-0.0317 c 0.121229,0.0419 -0.05673,-0.0993 0,0 z m -0.120495,-0.1004 c -0.142373,-0.0143 0.02253,-0.11273 0,0 z m 0.109833,3.78233 c 0.139743,-0.37474 -0.259828,0.18304 0,0 z m -5.526887,-1.34343 c -0.421261,-0.31925 -0.565428,-1.07325 0.03537,-1.2762 0.363081,-0.2582 0.960661,-0.70721 0.658445,-1.20522 -0.213372,-0.36422 -0.695796,-0.6749 -1.114464,-0.46593 -0.395794,0.381 -0.478972,0.95515 -0.748964,1.41366 -0.155222,0.54779 0.269591,1.07974 0.756796,1.28016 0.139454,0.0814 0.28079,0.16023 0.412817,0.25353 z m 0.124924,-2.93826 c -0.238472,-0.21324 0.196545,-0.0559 0,0 z m 4.134861,1.47651 c 0.26597,-0.0758 -0.132695,-0.0709 0,0 z m -0.24731,-0.1764 c 0.140629,0.0354 -0.06422,-0.11924 0,0 z M 33.389203,216.159 c 0.336278,-0.20626 -0.311624,-0.0917 0,0 z m 0.497831,-0.0711 c 0.313427,0.0292 -0.10823,-0.2602 0,0 z m -0.742595,-0.0583 c 0.287273,-0.0366 -0.103143,-0.19321 0,0 z m 0.50594,-0.0262 c 0.152252,0.0174 -0.0276,-0.096 0,0 z m -2.339698,-0.36404 c 0.641943,0.006 0.04145,-1.1244 -0.307426,-0.60217 -0.148279,0.21238 -0.04746,0.77051 0.307426,0.60217 z m 3.294208,-0.006 c -0.10003,-0.0707 0.02861,0.0998 0,0 z m -2.292394,-0.1812 c 0.262953,-0.0905 -0.122136,-0.15955 0,0 z"
           id="path11156"
           inkscape:connector-curvature="0"
           sodipodi:nodetypes="ccccccccccccccccccccccccccccccccccccccccccccccccccccccccccccccccccccccccccccccccccccccc" />
        <path
           sodipodi:type="arc"
           style="color:#000000;fill:none;stroke:#666666;stroke-width:0.22523372;stroke-linecap:round;stroke-linejoin:miter;stroke-miterlimit:4;stroke-opacity:1;stroke-dasharray:none;stroke-dashoffset:0;marker:none;visibility:visible;display:inline;overflow:visible;enable-background:accumulate"
           id="path11077"
           sodipodi:cx="32"
           sodipodi:cy="218.36218"
           sodipodi:rx="4"
           sodipodi:ry="4"
           d="m 36,218.36218 c 0,2.20914 -1.790861,4 -4,4 -2.209139,0 -4,-1.79086 -4,-4 0,-2.20914 1.790861,-4 4,-4 2.209139,0 4,1.79086 4,4 z"
           transform="matrix(1.0153846,0,0,1.0153846,-0.49230769,-3.3594182)" />
      </g>
    </g>
    <g
       inkscape:export-ydpi="90.000015"
       inkscape:export-xdpi="90.000015"
       inkscape:export-filename="/Users/jiho/Desktop/world.png"
       id="g10235"
       transform="translate(0.0977369,15.002616)">
      <g
         id="g10239"
         transform="matrix(1.0931406,0,0,1.0931406,1.08567,-20.338382)" />
    </g>
    <g
       id="g10440"
       transform="translate(0.625,3.9973777)"
       inkscape:export-filename="twoColumns-MagnifyingGlass.png"
       inkscape:export-xdpi="90.000015"
       inkscape:export-ydpi="90.000015">
      <rect
         y="224.86349"
         x="29.375"
         height="12.999997"
         width="13"
         id="rect10237"
         style="color:#000000;fill:none;stroke:none;stroke-width:1.99999988;marker:none;visibility:visible;display:inline;overflow:visible;enable-background:accumulate" />
      <path
         sodipodi:type="arc"
         style="color:#000000;fill:none;stroke:#666666;stroke-width:2.25970292;stroke-linecap:round;stroke-linejoin:miter;stroke-miterlimit:4;stroke-opacity:1;stroke-dasharray:none;stroke-dashoffset:0;marker:none;visibility:visible;display:inline;overflow:visible;enable-background:accumulate"
         id="path10243"
         sodipodi:cx="32"
         sodipodi:cy="218.36218"
         sodipodi:rx="4"
         sodipodi:ry="4"
         d="m 36,218.36218 c 0,2.20914 -1.790861,4 -4,4 -2.209139,0 -4,-1.79086 -4,-4 0,-2.20914 1.790861,-4 4,-4 2.209139,0 4,1.79086 4,4 z"
         transform="matrix(0.88507208,0,0,0.88507208,6.552694,36.847223)" />
      <path
         inkscape:connector-curvature="0"
         id="path10378"
         d="m 37.375,232.86349 3,3"
         style="color:#000000;fill:none;stroke:#666666;stroke-width:1.99999988;stroke-linecap:round;stroke-linejoin:miter;stroke-miterlimit:4;stroke-opacity:1;stroke-dasharray:none;stroke-dashoffset:0;marker:none;visibility:visible;display:inline;overflow:visible;enable-background:accumulate" />
    </g>
    <g
       id="g11059"
       transform="matrix(1.0048481,0,0,1.0048481,-43.020712,17.860772)"
       inkscape:export-filename="twoColumns-Google.png"
       inkscape:export-xdpi="90.000015"
       inkscape:export-ydpi="90.000015">
      <rect
         style="opacity:0.2;color:#000000;fill:#ffffff;stroke:none;marker:none;visibility:visible;display:inline;overflow:visible;enable-background:accumulate"
         id="rect11130"
         width="15.425216"
         height="15.922808"
         x="71.673233"
         y="225.90489" />
      <text
         sodipodi:linespacing="120%"
         id="text10246"
         y="240.14676"
         x="79.538956"
         style="font-size:18.87643433px;font-style:normal;font-variant:normal;font-weight:normal;font-stretch:normal;text-align:center;line-height:120.00000477%;letter-spacing:0px;word-spacing:0px;writing-mode:lr-tb;text-anchor:middle;color:#000000;fill:#666666;fill-opacity:1;stroke:none;stroke-width:2;marker:none;visibility:visible;display:inline;overflow:visible;enable-background:accumulate;font-family:Helvetica Neue;-inkscape-font-specification:Bitstream Vera Sans"
         xml:space="preserve"
         transform="scale(0.9999872,1.0000128)"><tspan
           style="font-style:normal;font-variant:normal;font-weight:normal;font-stretch:normal;color:#000000;fill:#666666;stroke:none;stroke-width:2;marker:none;visibility:visible;display:inline;overflow:visible;enable-background:accumulate;font-family:Catull;-inkscape-font-specification:Catull"
           y="240.14676"
           x="79.538956"
           id="tspan10248"
           sodipodi:role="line">G</tspan></text>
    </g>
    <g
       inkscape:export-ydpi="90.000015"
       inkscape:export-xdpi="90.000015"
       inkscape:export-filename="twoColumns-MagnifyingGlassGoogle.png"
       transform="matrix(1.357793,0,0,1.357793,-11.417227,-39.557935)"
       id="g11132">
      <rect
         style="color:#000000;fill:#ffffff;stroke:none;stroke-width:1.99999988;marker:none;visibility:visible;display:inline;overflow:visible;enable-background:accumulate"
         id="rect11134"
         width="12.520317"
         height="12.520324"
         x="29.030365"
         y="224.20119" />
      <path
         transform="matrix(1.1176375,0,0,1.1176375,-0.89373415,-13.956662)"
         d="m 36,218.36218 c 0,2.20914 -1.790861,4 -4,4 -2.209139,0 -4,-1.79086 -4,-4 0,-2.20914 1.790861,-4 4,-4 2.209139,0 4,1.79086 4,4 z"
         sodipodi:ry="4"
         sodipodi:rx="4"
         sodipodi:cy="218.36218"
         sodipodi:cx="32"
         id="path11136"
         style="color:#000000;fill:none;stroke:#666666;stroke-width:1.3179394;stroke-linecap:round;stroke-linejoin:miter;stroke-miterlimit:4;stroke-opacity:1;stroke-dasharray:none;stroke-dashoffset:0;marker:none;visibility:visible;display:inline;overflow:visible;enable-background:accumulate"
         sodipodi:type="arc" />
      <path
         style="color:#000000;fill:none;stroke:#666666;stroke-width:1.47297847;stroke-linecap:round;stroke-linejoin:miter;stroke-miterlimit:4;stroke-opacity:1;stroke-dasharray:none;stroke-dashoffset:0;marker:none;visibility:visible;display:inline;overflow:visible;enable-background:accumulate"
         d="m 37.958762,233.4312 1.973505,1.9735"
         id="path11138"
         inkscape:connector-curvature="0" />
      <text
         sodipodi:linespacing="120%"
         id="text10246-9"
         y="232.59753"
         x="34.871113"
         style="font-size:7.10306883px;font-style:normal;font-variant:normal;font-weight:normal;font-stretch:normal;text-align:center;line-height:120.00000477%;letter-spacing:0px;word-spacing:0px;writing-mode:lr-tb;text-anchor:middle;color:#000000;fill:#666666;fill-opacity:1;stroke:#666666;stroke-width:0.55236697;stroke-opacity:1;marker:none;visibility:visible;display:inline;overflow:visible;enable-background:accumulate;font-family:Helvetica Neue;-inkscape-font-specification:Bitstream Vera Sans"
         xml:space="preserve"
         transform="scale(0.9999872,1.0000128)"><tspan
           style="font-style:normal;font-variant:normal;font-weight:normal;font-stretch:normal;color:#000000;fill:#666666;stroke:#666666;stroke-width:0.55236697;stroke-opacity:1;marker:none;visibility:visible;display:inline;overflow:visible;enable-background:accumulate;font-family:Catull;-inkscape-font-specification:Catull"
           y="232.59753"
           x="34.871113"
           id="tspan10248-3"
           sodipodi:role="line">G</tspan></text>
    </g>
  </g>
</svg>
